<?xml version="1.0" encoding="UTF-8" standalone="no"?>
<!DOCTYPE svg PUBLIC "-//W3C//DTD SVG 1.1//EN" "http://www.w3.org/Graphics/SVG/1.1/DTD/svg11.dtd">
<svg xmlns="http://www.w3.org/2000/svg" version="1.1" viewBox="0.00 0.00 500.00 163.00">
<path fill="#0791f9" d="
  M 48.67 12.82
  L 37.10 41.67
  A 3.97 3.97 0.0 0 1 30.09 42.36
  L 11.22 13.51
  A 3.97 3.97 0.0 0 1 14.54 7.37
  L 44.99 7.37
  A 3.97 3.97 0.0 0 1 48.67 12.82
  Z"
/>
<path fill="#12b0f2" d="
  M 260.89 13.09
  L 250.29 45.23
  A 4.19 4.19 0.0 0 1 242.72 46.08
  L 223.36 13.94
  A 4.19 4.19 0.0 0 1 226.95 7.59
  L 256.91 7.59
  A 4.19 4.19 0.0 0 1 260.89 13.09
  Z"
/>
<path fill="#12b0f2" d="
  M 26.52 123.33
  Q 26.21 122.91 25.79 121.42
  Q 25.25 119.53 26.72 115.35
  Q 34.30 93.85 60.32 14.19
  Q 61.38 10.95 62.35 9.85
  C 63.68 8.35 66.11 7.88 68.27 7.87
  Q 77.54 7.82 91.25 7.63
  C 95.81 7.57 100.21 9.85 98.23 15.22
  Q 96.69 19.40 95.96 21.60
  Q 71.08 96.40 63.63 118.78
  Q 62.63 121.76 61.40 123.06
  C 59.78 124.78 58.00 125.73 55.49 125.74
  Q 44.62 125.81 31.50 125.69
  Q 28.20 125.66 26.52 123.33
  Z"
/>
<path fill="#0791f9" d="
  M 434.00 8.14
  L 428.23 8.15
  L 434.00 8.14
  Z"
/>
<path fill="#10a1f6" d="
  M 428.23 8.15
  L 434.00 8.14
  C 435.85 8.21 438.39 8.94 438.58 11.09
  C 438.84 13.89 437.78 16.20 436.55 19.60
  A 0.51 0.51 0.0 0 0 437.04 20.28
  Q 458.78 19.98 482.25 20.18
  Q 485.60 20.21 487.71 20.63
  Q 488.20 20.73 488.69 21.17
  L 490.56 22.87
  Q 490.84 23.13 490.93 23.71
  Q 491.16 25.19 490.62 26.62
  Q 487.61 34.62 484.96 42.75
  Q 471.78 83.22 469.82 89.56
  Q 464.82 105.71 462.91 111.26
  C 461.93 114.10 461.49 116.38 460.51 119.28
  Q 458.55 125.11 452.25 125.28
  Q 443.00 125.53 430.87 125.30
  C 427.72 125.24 423.77 125.70 422.09 122.23
  Q 421.69 121.40 421.95 120.22
  C 422.71 116.76 424.43 112.88 425.27 110.22
  Q 438.47 68.19 452.08 27.99
  A 0.60 0.60 0.0 0 0 451.51 27.20
  L 434.78 27.20
  Q 433.85 27.20 433.59 28.09
  Q 432.33 32.51 432.12 33.17
  Q 419.60 72.13 417.85 77.61
  Q 413.09 92.49 407.44 109.19
  Q 405.72 114.28 404.19 119.44
  Q 403.25 122.62 400.58 123.90
  Q 399.06 124.63 395.32 124.62
  Q 378.11 124.60 373.29 124.56
  Q 370.16 124.54 368.35 123.21
  Q 365.33 120.98 366.53 117.30
  Q 372.12 100.30 376.83 85.90
  Q 379.96 76.34 382.98 66.76
  Q 387.09 53.73 389.15 47.75
  Q 395.26 30.09 399.94 14.67
  C 400.56 12.65 402.20 9.24 404.61 8.67
  Q 406.45 8.23 407.25 8.22
  Q 413.41 8.11 428.23 8.15
  Z"
/>
<path stroke="#61d2fe" stroke-width="2.00" fill="none" stroke-linecap="butt" d="
  M 412.80 74.99
  L 389.24 64.94"
/>
<path fill="#41c3ff" d="
  M 18.06 12.52
  L 41.76 12.54
  A 0.64 0.64 0.0 0 1 42.36 13.42
  L 33.65 35.46
  A 0.64 0.64 0.0 0 1 32.52 35.58
  L 17.53 13.52
  A 0.64 0.64 0.0 0 1 18.06 12.52
  Z"
/>
<path fill="#80e1fc" d="
  M 245.14 39.19
  L 229.71 13.58
  A 0.66 0.66 0.0 0 1 230.28 12.58
  L 254.96 12.58
  A 0.66 0.66 0.0 0 1 255.58 13.46
  L 246.33 39.08
  A 0.66 0.66 0.0 0 1 245.14 39.19
  Z"
/>
<path fill="#fcfcfc" d="
  M 57.12 119.82
  L 32.32 119.82
  A 0.83 0.83 0.0 0 1 31.53 118.73
  L 66.29 13.36
  A 0.83 0.83 0.0 0 1 67.08 12.79
  L 91.88 12.79
  A 0.83 0.83 0.0 0 1 92.67 13.88
  L 57.91 119.25
  A 0.83 0.83 0.0 0 1 57.12 119.82
  Z"
/>
<path fill="#80e1fc" d="
  M 412.80 74.99
  L 389.24 64.94
  L 405.97 14.52
  A 1.88 1.88 0.0 0 1 407.75 13.24
  L 431.39 13.24
  A 0.88 0.88 0.0 0 1 432.23 14.39
  L 412.80 74.99
  Z"
/>
<path fill="#10a1f6" d="
  M 290.71 117.21
  L 308.56 117.21
  Q 309.79 117.21 310.17 116.04
  Q 324.47 72.32 339.50 25.99
  Q 341.43 20.02 348.05 20.04
  Q 372.79 20.13 373.24 20.14
  Q 377.00 20.21 378.88 23.05
  A 2.00 1.99 -55.8 0 1 379.16 24.55
  C 378.42 27.91 377.03 31.39 376.16 34.00
  Q 362.77 74.36 349.59 114.80
  Q 349.57 114.86 348.81 117.99
  Q 348.11 120.85 346.03 122.81
  Q 344.25 124.49 341.52 124.47
  Q 301.81 124.15 266.02 124.33
  Q 259.90 124.37 255.55 124.24
  C 253.37 124.18 252.11 123.31 250.92 121.88
  C 249.45 120.14 249.13 119.43 249.90 117.10
  Q 257.35 94.48 278.66 29.16
  Q 278.93 28.33 280.63 23.86
  C 281.96 20.34 284.52 19.89 288.21 19.90
  Q 298.01 19.91 314.26 19.96
  Q 316.59 19.97 318.40 21.72
  C 320.42 23.66 319.17 25.54 318.13 28.38
  Q 315.91 34.42 304.63 68.97
  Q 300.45 81.78 289.64 115.74
  Q 289.18 117.21 290.71 117.21
  Z"
/>
<path stroke="#61d2fe" stroke-width="2.00" fill="none" stroke-linecap="butt" d="
  M 350.20 94.75
  Q 337.59 90.85 325.70 85.67"
/>
<path fill="#80e1fc" d="
  M 282.29 118.12
  L 256.29 118.12
  A 0.74 0.74 0.0 0 1 255.59 117.15
  L 285.69 25.91
  A 0.74 0.74 0.0 0 1 286.40 25.40
  L 312.40 25.40
  A 0.74 0.74 0.0 0 1 313.10 26.37
  L 283.00 117.61
  A 0.74 0.74 0.0 0 1 282.29 118.12
  Z"
/>
<path fill="#80e1fc" d="
  M 350.20 94.75
  Q 337.59 90.85 325.70 85.67
  L 345.23 26.54
  A 1.45 1.44 -80.7 0 1 346.60 25.55
  L 371.68 25.55
  A 1.17 1.16 9.2 0 1 372.79 27.08
  L 350.20 94.75
  Z"
/>
<path fill="#fcfcfc" d="
  M 458.77 25.57
  L 484.39 25.57
  A 0.46 0.46 0.0 0 1 484.83 26.17
  L 454.99 119.23
  A 0.46 0.46 0.0 0 1 454.55 119.55
  L 428.07 119.55
  A 0.46 0.46 0.0 0 1 427.63 118.95
  L 458.34 25.89
  A 0.46 0.46 0.0 0 1 458.77 25.57
  Z"
/>
<path fill="#12b0f2" d="
  M 187.19 115.92
  A 1.72 1.72 0.0 0 0 188.82 114.74
  Q 200.37 79.62 215.12 38.38
  C 215.80 36.49 217.49 31.64 220.34 32.96
  Q 222.55 33.99 223.00 34.76
  Q 228.56 44.30 237.42 59.18
  C 238.77 61.45 239.51 63.04 241.17 66.13
  Q 242.39 68.39 241.32 71.95
  Q 241.14 72.52 216.68 145.56
  Q 215.46 149.22 214.93 150.74
  Q 212.69 157.18 205.76 157.05
  Q 199.11 156.92 185.90 156.88
  Q 182.37 156.87 180.80 156.10
  Q 178.28 154.86 176.68 152.48
  Q 168.86 140.77 158.42 125.52
  C 155.95 121.90 153.82 119.96 157.17 116.37
  Q 157.59 115.92 158.21 115.92
  L 187.19 115.92
  Z"
/>
<path fill="#0791f9" d="
  M 184.53 64.75
  Q 182.47 67.74 178.50 67.72
  Q 154.00 67.62 111.25 67.73
  Q 110.38 67.73 107.64 67.63
  Q 105.44 67.54 104.48 66.50
  Q 102.72 64.58 102.83 62.91
  Q 102.98 60.54 105.15 57.69
  Q 113.94 46.16 117.00 42.23
  Q 119.41 39.14 121.47 38.47
  Q 122.85 38.03 127.25 38.00
  Q 162.77 37.82 192.77 37.88
  Q 196.43 37.89 197.72 40.54
  C 198.62 42.38 197.48 44.57 196.37 46.37
  Q 189.14 58.07 184.53 64.75
  Z"
/>
<path fill="#fcfcfc" d="
  M 190.03 120.16
  Q 192.31 119.15 193.50 117.14
  Q 193.83 116.59 195.17 113.04
  C 197.00 108.22 198.16 102.73 199.72 98.34
  Q 207.52 76.50 213.21 59.42
  Q 213.24 59.35 216.36 51.10
  Q 217.94 46.91 219.09 42.04
  Q 219.31 41.11 220.14 41.58
  Q 220.86 41.99 221.51 43.03
  Q 223.63 46.48 234.78 65.34
  Q 235.78 67.03 236.23 68.58
  Q 236.62 69.94 235.94 71.91
  Q 228.48 93.48 220.22 116.98
  Q 218.95 120.57 218.71 121.81
  C 218.27 124.07 217.74 126.40 216.98 128.38
  Q 212.51 140.03 209.37 150.25
  A 1.67 1.66 -81.5 0 1 207.78 151.43
  L 182.96 151.43
  A 2.39 2.38 -17.3 0 1 181.00 150.41
  C 178.34 146.63 176.11 141.95 173.24 137.82
  Q 169.49 132.41 163.24 123.17
  Q 162.67 122.34 162.62 121.81
  Q 162.55 121.07 163.29 121.06
  Q 187.70 120.65 187.75 120.65
  Q 188.96 120.63 190.03 120.16
  Z"
/>
<path fill="#41c3ff" d="
  M 110.31 60.77
  Q 115.95 52.58 121.71 45.23
  C 122.88 43.73 125.09 43.12 127.10 43.10
  Q 156.41 42.89 190.79 42.93
  A 0.81 0.80 16.4 0 1 191.47 44.17
  L 180.83 60.70
  A 2.68 2.67 -73.6 0 1 178.58 61.93
  L 110.91 61.93
  A 0.74 0.73 -72.6 0 1 110.31 60.77
  Z"
/>
<path fill="#41c3ff" d="
  M 412.80 74.99
  L 398.59 117.85
  A 1.06 1.04 9.2 0 1 397.59 118.56
  L 373.61 118.56
  A 1.16 1.15 9.0 0 1 372.51 117.05
  L 389.24 64.94
  L 412.80 74.99
  Z"
/>
<path fill="#41c3ff" d="
  M 325.70 85.67
  Q 337.59 90.85 350.20 94.75
  L 342.94 117.32
  A 1.66 1.65 -81.0 0 1 341.37 118.47
  L 316.46 118.47
  A 0.94 0.93 -81.1 0 1 315.57 117.25
  L 325.70 85.67
  Z"
/>
</svg>
