<?xml version="1.0" standalone="no"?>
<!DOCTYPE svg PUBLIC "-//W3C//DTD SVG 20010904//EN"
 "http://www.w3.org/TR/2001/REC-SVG-20010904/DTD/svg10.dtd">
<svg version="1.0" xmlns="http://www.w3.org/2000/svg"
 viewBox="0 0 674.000000 674.000000"
 preserveAspectRatio="xMidYMid meet">

<g transform="translate(0.000000,674.000000) scale(0.100000,-0.100000)"
fill="current" stroke="none">
<path d="M1113 6605 c-33 -33 -35 -39 -31 -88 4 -48 18 -73 188 -327 100 -151
185 -283 188 -294 5 -17 1 -18 -34 -13 -21 3 -156 18 -300 33 -228 24 -265 26
-293 14 -61 -25 -87 -99 -57 -159 8 -15 502 -763 1097 -1662 595 -899 1092
-1654 1105 -1679 30 -57 40 -141 25 -210 -6 -29 -149 -451 -316 -937 -168
-486 -309 -909 -314 -940 -15 -99 11 -158 90 -203 l44 -25 748 -3 c532 -2 760
1 790 9 27 7 56 26 82 53 35 36 52 73 127 276 123 336 264 761 283 860 22 110
17 236 -13 303 -11 26 -475 728 -1029 1560 -1062 1593 -1443 2169 -1864 2818
-292 450 -284 438 -271 451 12 12 1363 -138 1406 -156 17 -7 47 -29 66 -48 20
-19 180 -255 356 -524 1095 -1670 1691 -2562 1737 -2598 34 -27 47 -31 101
-31 51 0 70 5 104 27 23 16 49 39 58 53 9 13 94 248 190 522 254 723 355 1006
462 1293 127 343 130 352 152 455 30 149 35 240 15 284 -34 75 21 71 -870 71
-569 0 -803 -3 -818 -11 -33 -17 -77 -60 -94 -92 -8 -16 -61 -165 -119 -330
-57 -166 -109 -312 -116 -324 -13 -25 -50 -31 -69 -10 -6 6 -217 323 -468 702
-398 601 -462 693 -497 712 -35 19 -134 32 -871 112 -457 50 -855 91 -883 91
-46 0 -56 -4 -87 -35z m236 -935 c189 -11 235 -19 274 -50 32 -25 0 22 721
-1062 668 -1002 916 -1378 933 -1417 25 -53 14 -110 -56 -311 -47 -132 -74
-196 -85 -198 -11 -2 -101 126 -308 440 -161 244 -613 924 -1005 1511 -392
588 -713 1075 -713 1082 0 15 26 25 50 19 8 -2 93 -8 189 -14z m4300 -219 c8
-15 -15 -94 -110 -367 -66 -192 -127 -367 -134 -389 -19 -59 -121 -356 -220
-640 -48 -137 -109 -315 -136 -395 -43 -127 -66 -170 -89 -170 -18 0 -53 48
-216 295 -97 149 -259 394 -360 546 -100 152 -186 285 -192 295 -11 21 -8 31
91 319 93 270 177 506 183 516 3 5 251 9 589 9 563 0 585 -1 594 -19z m-1719
-3283 c205 -310 375 -571 378 -581 2 -10 -9 -57 -26 -105 -28 -78 -63 -179
-249 -717 -100 -292 -115 -330 -131 -342 -12 -10 -144 -13 -583 -13 -620 0
-597 -2 -586 57 4 25 53 168 234 688 25 72 51 148 58 170 7 22 53 153 100 290
48 138 93 268 100 290 13 40 41 119 194 564 45 129 86 240 92 248 6 7 19 13
29 13 12 0 133 -174 390 -562z"/>
</g>
</svg>
